<svg id="Filled_Expand" enable-background="new 0 0 50 50" viewBox="0 0 50 50" xmlns="http://www.w3.org/2000/svg"><g><path d="m1 16.43c0 18.46 24 30.86 24 30.86s24-12.39 24-30.86c0-7.57-6.14-13.71-13.71-13.71-4.12 0-7.77 1.85-10.29 4.73-2.51-2.88-6.17-4.73-10.29-4.73-7.57-.01-13.71 6.13-13.71 13.71z" fill="#fb8098"/><path d="m25 48.29c-.16 0-.31-.04-.46-.11-1-.52-24.54-12.9-24.54-31.75 0-8.11 6.6-14.72 14.71-14.72 3.84 0 7.53 1.54 10.29 4.27 2.76-2.73 6.45-4.27 10.29-4.27 8.11 0 14.71 6.61 14.71 14.72 0 18.86-23.54 31.23-24.54 31.75-.15.07-.3.11-.46.11zm-10.29-44.58c-7.01 0-12.71 5.71-12.71 12.72 0 16.25 19.72 27.89 23 29.72 3.28-1.83 23-13.47 23-29.72 0-7.01-5.7-12.71-12.71-12.71-3.62 0-7.1 1.6-9.53 4.39-.38.43-1.13.43-1.51 0-2.44-2.8-5.92-4.4-9.54-4.4z"/></g></svg>