<svg id="Layer_1" viewBox="0 0 64 64" xmlns="http://www.w3.org/2000/svg" data-name="Layer 1" width="300" height="300" version="1.1" xmlns:xlink="http://www.w3.org/1999/xlink" xmlns:svgjs="http://svgjs.dev/svgjs"><g width="100%" height="100%" transform="matrix(1,0,0,1,0,0)"><path d="m61.16 29.381c-.439-.095-.892.121-1.097.523-3.316 6.479-9.895 10.504-17.169 10.504-10.635 0-19.288-8.659-19.288-19.303 0-7.274 4.025-13.853 10.504-17.169.402-.206.616-.656.522-1.098-.093-.442-.472-.766-.923-.791-.576-.032-1.135-.048-1.711-.048-16.54.001-29.998 13.459-29.998 30.001s13.458 30 30 30 30-13.458 30-30c0-.576-.016-1.137-.048-1.697-.026-.451-.35-.829-.792-.922zm-29.16 30.619c-15.439 0-28-12.561-28-28 0-14.813 11.563-26.977 26.138-27.939-5.334 3.977-8.531 10.234-8.531 17.044 0 11.747 9.55 21.303 21.288 21.303 6.81 0 13.067-3.196 17.043-8.529-.97 14.566-13.129 26.121-27.938 26.121z" fill="#fefefe" fill-opacity="1" data-original-color="#000000ff" stroke="none" stroke-opacity="1"/></g></svg>