<svg id="Layer_1" viewBox="0 0 64 64" xmlns="http://www.w3.org/2000/svg" data-name="Layer 1" width="300" height="300" version="1.1" xmlns:xlink="http://www.w3.org/1999/xlink" xmlns:svgjs="http://svgjs.dev/svgjs"><g width="100%" height="100%" transform="matrix(1,0,0,1,0,0)"><path d="m48.519 32.549c0-9.108-7.41-16.519-16.519-16.519s-16.519 7.41-16.519 16.519 7.41 16.518 16.519 16.518 16.519-7.41 16.519-16.518zm-16.519 14.518c-8.005 0-14.519-6.513-14.519-14.518s6.513-14.519 14.519-14.519 14.519 6.513 14.519 14.519-6.513 14.518-14.519 14.518z" fill="#fefefe" fill-opacity="1" data-original-color="#000000ff" stroke="none" stroke-opacity="1"/><path d="m33 11.06v-7.51c0-.552-.448-1-1-1s-1 .448-1 1v7.51c0 .552.448 1 1 1s1-.448 1-1z" fill="#fefefe" fill-opacity="1" data-original-color="#000000ff" stroke="none" stroke-opacity="1"/><path d="m31 54.04v6.41c0 .552.448 1 1 1s1-.448 1-1v-6.41c0-.552-.448-1-1-1s-1 .448-1 1z" fill="#fefefe" fill-opacity="1" data-original-color="#000000ff" stroke="none" stroke-opacity="1"/><path d="m60.45 33c.552 0 1-.448 1-1s-.448-1-1-1h-6.97c-.552 0-1 .448-1 1s.448 1 1 1z" fill="#fefefe" fill-opacity="1" data-original-color="#000000ff" stroke="none" stroke-opacity="1"/><path d="m3.55 31c-.552 0-1 .448-1 1s.448 1 1 1h6.97c.552 0 1-.448 1-1s-.448-1-1-1z" fill="#fefefe" fill-opacity="1" data-original-color="#000000ff" stroke="none" stroke-opacity="1"/><path d="m47.627 17.787 5.2-5.2c.391-.391.391-1.023 0-1.414s-1.023-.391-1.414 0l-5.2 5.2c-.391.391-.391 1.023 0 1.414.195.195.451.293.707.293s.512-.098.707-.293z" fill="#fefefe" fill-opacity="1" data-original-color="#000000ff" stroke="none" stroke-opacity="1"/><path d="m11.88 53.12c.256 0 .512-.098.707-.293l4.65-4.65c.391-.391.391-1.023 0-1.414s-1.023-.391-1.414 0l-4.65 4.65c-.391.391-.391 1.023 0 1.414.195.195.451.293.707.293z" fill="#fefefe" fill-opacity="1" data-original-color="#000000ff" stroke="none" stroke-opacity="1"/><path d="m51.413 52.827c.195.195.451.293.707.293s.512-.098.707-.293c.391-.391.391-1.023 0-1.414l-4.65-4.65c-.391-.391-1.023-.391-1.414 0s-.391 1.023 0 1.414z" fill="#fefefe" fill-opacity="1" data-original-color="#000000ff" stroke="none" stroke-opacity="1"/><path d="m17.08 18.08c.256 0 .512-.098.707-.293.391-.391.391-1.023 0-1.414l-5.2-5.2c-.391-.391-1.023-.391-1.414 0s-.391 1.023 0 1.414l5.2 5.2c.195.195.451.293.707.293z" fill="#fefefe" fill-opacity="1" data-original-color="#000000ff" stroke="none" stroke-opacity="1"/></g></svg>