<svg version="1.1" id="svg2247" xml:space="preserve" width="300" height="300" viewBox="0 0 682.66669 682.66669" xmlns="http://www.w3.org/2000/svg" xmlns:svg="http://www.w3.org/2000/svg" xmlns:xlink="http://www.w3.org/1999/xlink" xmlns:svgjs="http://svgjs.dev/svgjs"><g width="100%" height="100%" transform="matrix(1,0,0,1,0,0)"><defs id="defs2251"><clipPath clipPathUnits="userSpaceOnUse" id="clipPath2261"><path d="M 0,512 H 512 V 0 H 0 Z" id="path2259" fill="#5a69e7" fill-opacity="1" data-original-color="#000000ff" stroke="none" stroke-opacity="1"/></clipPath><clipPath clipPathUnits="userSpaceOnUse" id="clipPath2277"><path d="M 0,512 H 512 V 0 H 0 Z" id="path2275" fill="#5a69e7" fill-opacity="1" data-original-color="#000000ff" stroke="none" stroke-opacity="1"/></clipPath></defs><g id="g2253" transform="matrix(1.3333333,0,0,-1.3333333,0,682.66667)"><g id="g2255"><g id="g2257" clip-path="url(#clipPath2261)"><g id="g2263" transform="translate(376.4995,416.666)"><path d="M 0,0 H -120.5 V 80.334 H 0 L -40.168,40.167 Z" style="stroke-linecap: round; stroke-linejoin: round; stroke-miterlimit: 10; stroke-dasharray: none;" id="path2265" fill="none" fill-opacity="1" stroke="#5a69e7" stroke-opacity="1" data-original-stroke-color="#000000ff" stroke-width="30" data-original-stroke-width="30"/></g></g></g><g id="g2267" transform="translate(255.9995,352.3994)"><path d="M 0,0 V 64.267" style="stroke-linecap: round; stroke-linejoin: round; stroke-miterlimit: 10; stroke-dasharray: none;" id="path2269" fill="none" fill-opacity="1" stroke="#5a69e7" stroke-opacity="1" data-original-stroke-color="#000000ff" stroke-width="30" data-original-stroke-width="30"/></g><g id="g2271"><g id="g2273" clip-path="url(#clipPath2277)"><g id="g2279" transform="translate(424.6997,183.7002)"><path d="m 0,0 c 0,-93.171 -75.53,-168.7 -168.7,-168.7 -93.171,0 -168.699,75.529 -168.699,168.7 0,93.171 75.528,168.699 168.699,168.699 C -75.53,168.699 0,93.171 0,0 Z" style="stroke-linecap: round; stroke-linejoin: round; stroke-miterlimit: 10; stroke-dasharray: none;" id="path2281" fill="none" fill-opacity="1" stroke="#5a69e7" stroke-opacity="1" data-original-stroke-color="#000000ff" stroke-width="30" data-original-stroke-width="30"/></g><g id="g2283" transform="translate(384.8442,292.5859)"><path d="m 0,0 c -32.752,-10.141 -56.545,-40.669 -56.545,-76.753 0,-44.366 35.967,-80.333 80.334,-80.333 h 9.067" style="stroke-linecap: round; stroke-linejoin: round; stroke-miterlimit: 10; stroke-dasharray: none;" id="path2285" fill="none" fill-opacity="1" stroke="#5a69e7" stroke-opacity="1" data-original-stroke-color="#000000ff" stroke-width="30" data-original-stroke-width="30"/></g><g id="g2287" transform="translate(283.3237,17.2129)"><path d="m 0,0 c 12.971,14.265 20.876,33.22 20.876,54.021 0,44.367 -35.967,80.333 -80.333,80.333 h -40.167 c -17.747,0 -32.133,14.386 -32.133,32.133 0,17.747 14.386,32.133 32.133,32.133 44.367,0 80.333,35.967 80.333,80.334 0,21.592 -8.52,41.195 -22.38,55.632" style="stroke-linecap: round; stroke-linejoin: round; stroke-miterlimit: 10; stroke-dasharray: none;" id="path2289" fill="none" fill-opacity="1" stroke="#5a69e7" stroke-opacity="1" data-original-stroke-color="#000000ff" stroke-width="30" data-original-stroke-width="30"/></g></g></g></g></g></svg>